<svg width="388" height="328" viewBox="0 0 388 328" fill="none" xmlns="http://www.w3.org/2000/svg">
<path d="M129.741 258.038C183.082 311.379 216.337 374.676 227.002 433.874C237.667 493.074 225.736 548.124 188.784 585.075C151.833 622.027 96.7826 633.958 37.5826 623.293C-21.6151 612.628 -84.9116 579.373 -138.253 526.032C-191.594 472.691 -224.849 409.394 -235.514 350.196C-246.179 290.997 -234.248 235.947 -197.296 198.995C-160.345 162.043 -105.295 150.112 -46.0947 160.777C13.1031 171.442 76.3996 204.697 129.741 258.038Z" stroke="white"/>
<path d="M161.741 226.038C215.082 279.379 248.337 342.676 259.002 401.874C269.667 461.074 257.736 516.124 220.784 553.075C183.833 590.027 128.783 601.958 69.5826 591.293C10.3849 580.628 -52.9116 547.373 -106.253 494.032C-159.594 440.691 -192.849 377.394 -203.514 318.196C-214.179 258.997 -202.248 203.947 -165.296 166.995C-128.345 130.043 -73.2946 118.112 -14.0947 128.777C45.1031 139.442 108.4 172.697 161.741 226.038Z" stroke="white"/>
<path d="M193.741 194.038C247.082 247.379 280.337 310.676 291.002 369.874C301.667 429.074 289.736 484.124 252.784 521.075C215.833 558.027 160.783 569.958 101.583 559.293C42.3849 548.628 -20.9116 515.373 -74.2527 462.032C-127.594 408.691 -160.849 345.394 -171.514 286.196C-182.179 226.997 -170.248 171.947 -133.296 134.995C-96.3446 98.0434 -41.2946 86.1123 17.9053 96.7772C77.1031 107.442 140.4 140.697 193.741 194.038Z" stroke="white"/>
</svg>
